<svg id="visual" viewBox="0 0 900 675" width="900" height="675" xmlns="http://www.w3.org/2000/svg" xmlns:xlink="http://www.w3.org/1999/xlink" version="1.1"><rect x="0" y="0" width="900" height="675" fill="#7ab541"></rect><defs><linearGradient id="grad1_0" x1="25%" y1="100%" x2="100%" y2="0%"><stop offset="23.333333333333336%" stop-color="#7ab541" stop-opacity="1"></stop><stop offset="76.66666666666666%" stop-color="#7ab541" stop-opacity="1"></stop></linearGradient></defs><defs><linearGradient id="grad2_0" x1="0%" y1="100%" x2="75%" y2="0%"><stop offset="23.333333333333336%" stop-color="#7ab541" stop-opacity="1"></stop><stop offset="76.66666666666666%" stop-color="#7ab541" stop-opacity="1"></stop></linearGradient></defs><g transform="translate(900, 675)"><path d="M-506.2 0C-482.8 -82.1 -459.3 -164.3 -420 -242.5C-380.8 -320.7 -325.8 -395.1 -253.1 -438.4C-180.5 -481.7 -90.2 -494 0 -506.2L0 0Z" fill="#d9171f"></path></g><g transform="translate(0, 0)"><path d="M506.3 0C494 90.2 481.7 180.5 438.4 253.1C395.1 325.8 320.7 380.8 242.5 420C164.3 459.3 82.1 482.8 0 506.3L0 0Z" fill="#d9171f"></path></g></svg>